<svg width="543" height="83" viewBox="0 0 543 83" fill="none" xmlns="http://www.w3.org/2000/svg">
<g clip-path="url(#clip0_5_7)">
<path d="M157.576 25.9835V34.4239H120.272V25.9835H157.576ZM131.445 82.1963V17.0367C131.445 13.323 132.376 10.2282 134.238 7.75231C136.101 5.27647 138.518 3.4196 141.492 2.18168C144.465 0.943758 147.604 0.324799 150.908 0.324799C153.521 0.324799 155.654 0.521741 157.306 0.915627C158.958 1.30951 160.189 1.67526 161 2.01287L157.936 10.622C157.396 10.4532 156.645 10.2422 155.684 9.98901C154.753 9.7358 153.521 9.60919 151.989 9.60919C148.475 9.60919 145.937 10.4392 144.375 12.0991C142.844 13.759 142.078 16.1927 142.078 19.4L141.492 82.1963H131.445Z" fill="white"/>
<path d="M197.087 82.8716C192.702 82.8716 188.722 82.0979 185.148 80.5505C181.574 78.9749 178.736 76.7101 176.633 73.756C174.531 70.7737 173.479 67.1725 173.479 62.9523C173.479 59.2385 174.26 56.2281 175.822 53.9211C177.384 51.5859 179.471 49.7572 182.085 48.4349C184.698 47.1125 187.581 46.1278 190.735 45.4807C193.919 44.8055 197.117 44.271 200.331 43.8771C204.536 43.3706 207.945 42.9908 210.558 42.7376C213.201 42.4563 215.124 41.9921 216.325 41.345C217.557 40.6979 218.172 39.5725 218.172 37.9688V37.6312C218.172 33.4673 216.956 30.2318 214.523 27.9248C212.12 25.6177 208.471 24.4642 203.575 24.4642C198.499 24.4642 194.519 25.5052 191.636 27.5872C188.752 29.6691 186.725 31.8917 185.554 34.255L175.462 30.8789C177.264 26.9401 179.667 23.8734 182.67 21.6789C185.704 19.4563 189.008 17.9089 192.582 17.0367C196.186 16.1364 199.73 15.6862 203.215 15.6862C205.437 15.6862 207.99 15.9395 210.874 16.4459C213.787 16.9242 216.595 17.9229 219.299 19.4422C222.032 20.9615 224.3 23.2544 226.102 26.3211C227.904 29.3878 228.805 33.4954 228.805 38.644V81.3523H218.172V72.5743H217.632C216.911 73.9811 215.709 75.4863 214.027 77.0899C212.345 78.6936 210.108 80.0581 207.314 81.1835C204.521 82.3089 201.112 82.8716 197.087 82.8716ZM198.709 73.9248C202.914 73.9248 206.458 73.1511 209.342 71.6037C212.255 70.0563 214.448 68.0587 215.92 65.611C217.421 63.1633 218.172 60.589 218.172 57.8881V48.7725C217.722 49.2789 216.731 49.7431 215.199 50.1651C213.697 50.559 211.955 50.9107 209.973 51.2202C208.02 51.5015 206.113 51.7547 204.251 51.9798C202.419 52.1768 200.932 52.3456 199.791 52.4862C197.027 52.8239 194.444 53.3725 192.041 54.1321C189.669 54.8636 187.746 55.9749 186.275 57.4661C184.833 58.9291 184.112 60.9266 184.112 63.4587C184.112 66.9193 185.479 69.5358 188.212 71.3083C190.975 73.0526 194.474 73.9248 198.709 73.9248Z" fill="white"/>
<path d="M297.23 31.0477L287.678 33.5798C287.078 32.0887 286.192 30.6398 285.02 29.233C283.879 27.7982 282.317 26.6165 280.335 25.6881C278.352 24.7596 275.814 24.2954 272.721 24.2954C268.486 24.2954 264.956 25.2098 262.133 27.0385C259.34 28.8391 257.943 31.1321 257.943 33.9174C257.943 36.3933 258.904 38.3486 260.827 39.7835C262.749 41.2184 265.752 42.4141 269.837 43.3706L280.109 45.734C286.297 47.1407 290.907 49.293 293.941 52.1908C296.974 55.0606 298.491 58.7602 298.491 63.2899C298.491 67.0037 297.35 70.3235 295.067 73.2495C292.814 76.1755 289.661 78.4826 285.606 80.1706C281.551 81.8587 276.835 82.7028 271.459 82.7028C264.401 82.7028 258.559 81.2679 253.933 78.3982C249.308 75.5284 246.379 71.3364 245.148 65.822L255.24 63.4587C256.201 66.9474 258.018 69.5639 260.691 71.3083C263.395 73.0526 266.924 73.9248 271.279 73.9248C276.235 73.9248 280.169 72.9401 283.083 70.9706C286.026 68.9731 287.498 66.5817 287.498 63.7963C287.498 61.5456 286.657 59.6605 284.975 58.1413C283.293 56.5939 280.71 55.4404 277.226 54.6807L265.692 52.1486C259.355 50.7419 254.699 48.5615 251.726 45.6073C248.782 42.6251 247.311 38.8973 247.311 34.4239C247.311 30.7664 248.407 27.5309 250.599 24.7174C252.822 21.904 255.841 19.6954 259.655 18.0917C263.5 16.4881 267.855 15.6862 272.721 15.6862C279.569 15.6862 284.945 17.093 288.85 19.9064C292.784 22.7199 295.578 26.4336 297.23 31.0477Z" fill="white"/>
<path d="M344.592 16.5303V24.9706H308.729V16.5303H344.592ZM319.182 1.00001H329.814V62.7835C329.814 65.5969 330.25 67.707 331.121 69.1138C332.022 70.4924 333.163 71.4208 334.545 71.8991C335.957 72.3492 337.443 72.5743 339.005 72.5743C340.177 72.5743 341.138 72.518 341.889 72.4055C342.64 72.2648 343.24 72.1523 343.691 72.0679L345.853 81.0147C345.133 81.2679 344.126 81.5211 342.835 81.7743C341.543 82.0557 339.906 82.1963 337.924 82.1963C334.921 82.1963 331.977 81.5914 329.094 80.3817C326.24 79.1719 323.867 77.3291 321.975 74.8532C320.113 72.3774 319.182 69.2544 319.182 65.4844V1.00001Z" fill="white"/>
<path d="M388.857 82.7028C382.189 82.7028 376.437 81.3242 371.601 78.567C366.796 75.7817 363.086 71.8991 360.473 66.9193C357.89 61.9113 356.599 56.0875 356.599 49.4477C356.599 42.808 357.89 36.956 360.473 31.8918C363.086 26.7994 366.721 22.8324 371.376 19.9908C376.062 17.1211 381.528 15.6862 387.776 15.6862C391.38 15.6862 394.939 16.2489 398.453 17.3743C401.967 18.4997 405.166 20.3284 408.05 22.8606C410.933 25.3645 413.231 28.6844 414.943 32.8202C416.655 36.956 417.511 42.0483 417.511 48.0973V52.3174H364.168V43.7083H406.698C406.698 40.0508 405.917 36.7872 404.355 33.9174C402.823 31.0477 400.631 28.7829 397.777 27.1229C394.954 25.463 391.62 24.633 387.776 24.633C383.541 24.633 379.876 25.6177 376.783 27.5872C373.719 29.5284 371.361 32.0606 369.709 35.1835C368.057 38.3064 367.231 41.6544 367.231 45.2275V50.967C367.231 55.8624 368.132 60.0122 369.934 63.4165C371.767 66.7927 374.305 69.367 377.548 71.1395C380.792 72.8838 384.562 73.756 388.857 73.756C391.65 73.756 394.173 73.3902 396.426 72.6587C398.709 71.8991 400.676 70.7737 402.328 69.2826C403.98 67.7633 405.256 65.8783 406.157 63.6275L416.43 66.3285C415.348 69.5921 413.531 72.4618 410.978 74.9376C408.425 77.3853 405.271 79.2985 401.517 80.6771C397.762 82.0275 393.542 82.7028 388.857 82.7028Z" fill="white"/>
<path d="M444.318 42.3578V81.3523H433.685V16.5303H443.957V26.6587H444.858C446.48 23.367 448.943 20.7223 452.247 18.7248C455.551 16.6991 459.816 15.6862 465.042 15.6862C469.728 15.6862 473.827 16.5866 477.342 18.3872C480.856 20.1596 483.589 22.8606 485.541 26.4899C487.494 30.0911 488.47 34.6489 488.47 40.1633V81.3523H477.837V40.8385C477.837 35.7462 476.426 31.7792 473.602 28.9376C470.779 26.0679 466.904 24.633 461.978 24.633C458.584 24.633 455.551 25.3223 452.878 26.7009C450.235 28.0795 448.147 30.0911 446.615 32.7358C445.083 35.3804 444.318 38.5878 444.318 42.3578Z" fill="white"/>
<path d="M507.899 81.3523V16.5303H518.171V26.3211H518.892C520.154 23.1138 522.436 20.5113 525.74 18.5138C529.044 16.5162 532.768 15.5174 536.913 15.5174C537.694 15.5174 538.67 15.5315 539.842 15.5596C541.013 15.5878 541.899 15.63 542.5 15.6862V25.8147C542.14 25.7303 541.314 25.6037 540.022 25.4349C538.761 25.2379 537.424 25.1395 536.012 25.1395C532.648 25.1395 529.645 25.8006 527.002 27.1229C524.389 28.4171 522.316 30.2177 520.784 32.5248C519.282 34.8037 518.532 37.4061 518.532 40.3321V81.3523H507.899Z" fill="white"/>
<path d="M61.6572 0C84.5634 0 103.133 18.5694 103.133 41.4756C103.133 64.3818 84.5635 82.9512 61.6572 82.9512C38.751 82.9512 20.1816 64.3818 20.1816 41.4756C20.1817 18.5694 38.7511 1.03094e-05 61.6572 0ZM61.6572 22.0078C50.9054 22.0078 42.1895 30.7238 42.1895 41.4756C42.1895 52.2275 50.9053 60.9433 61.6572 60.9434C72.4091 60.9434 81.125 52.2275 81.125 41.4756C81.1249 30.7238 72.4091 22.0078 61.6572 22.0078Z" fill="white"/>
<rect x="62" y="83" width="62" height="11" transform="rotate(-180 62 83)" fill="white"/>
</g>
<defs>
<clipPath id="clip0_5_7">
<rect width="543" height="83" fill="white"/>
</clipPath>
</defs>
</svg>
