<svg width="475" height="83" viewBox="0 0 475 83" fill="none" xmlns="http://www.w3.org/2000/svg">
<g clip-path="url(#clip0_5_7)">
<path d="M61.6572 0C84.5634 0 103.133 18.5694 103.133 41.4756C103.133 64.3818 84.5635 82.9512 61.6572 82.9512C38.751 82.9512 20.1816 64.3818 20.1816 41.4756C20.1817 18.5694 38.7511 1.03094e-05 61.6572 0ZM61.6572 22.0078C50.9054 22.0078 42.1895 30.7238 42.1895 41.4756C42.1895 52.2275 50.9053 60.9433 61.6572 60.9434C72.4091 60.9434 81.125 52.2275 81.125 41.4756C81.1249 30.7238 72.4091 22.0078 61.6572 22.0078Z" fill="black"/>
<rect x="62" y="83" width="62" height="11" transform="rotate(-180 62 83)" fill="black"/>
<path d="M148.131 23.1699V32.3159H115V23.1699H148.131ZM124.084 81.7043V16.3866C124.084 12.7282 124.886 9.69223 126.489 7.2787C128.092 4.83976 130.217 3.02327 132.863 1.82921C135.509 0.609735 138.385 0 141.489 0C143.779 0 145.739 0.190543 147.367 0.57163C148.996 0.927306 150.204 1.25758 150.993 1.56245L148.321 10.7847C147.787 10.6322 147.1 10.4544 146.26 10.2512C145.421 10.0225 144.403 9.90817 143.207 9.90817C140.433 9.90817 138.448 10.5941 137.252 11.966C136.082 13.3379 135.497 15.3196 135.497 17.9109V81.7043H124.084Z" fill="black"/>
<path d="M175.183 83C171.468 83 168.109 82.314 165.106 80.9421C162.104 79.5448 159.724 77.5251 157.969 74.8829C156.238 72.2407 155.373 69.0015 155.373 65.1653C155.373 61.8626 156.009 59.1442 157.282 57.0101C158.554 54.876 160.272 53.1866 162.434 51.9417C164.597 50.6968 167.015 49.7568 169.687 49.1217C172.358 48.4865 175.081 48.0038 177.855 47.6735C181.366 47.2671 184.216 46.9368 186.405 46.6827C188.593 46.4033 190.183 45.9587 191.176 45.3489C192.168 44.7392 192.664 43.7484 192.664 42.3765V42.1097C192.664 38.7816 191.723 36.2029 189.84 34.3737C187.982 32.5445 185.209 31.6299 181.519 31.6299C177.677 31.6299 174.649 32.481 172.435 34.1832C170.246 35.86 168.732 37.7273 167.893 39.7851L157.167 37.3462C158.439 33.7894 160.297 30.9186 162.74 28.7337C165.208 26.5234 168.045 24.9229 171.251 23.932C174.458 22.9158 177.829 22.4077 181.366 22.4077C183.707 22.4077 186.188 22.6872 188.809 23.2461C191.456 23.7796 193.924 24.7704 196.214 26.2185C198.53 27.6667 200.425 29.7372 201.901 32.4302C203.377 35.0978 204.115 38.5657 204.115 42.8338V81.7043H192.97V73.7016H192.512C191.774 75.1751 190.667 76.6232 189.191 78.0459C187.715 79.4686 185.819 80.65 183.504 81.59C181.188 82.53 178.415 83 175.183 83ZM177.664 73.854C180.819 73.854 183.516 73.2316 185.756 71.9867C188.02 70.7418 189.738 69.1159 190.909 67.1088C192.104 65.0764 192.702 62.9042 192.702 60.5923V53.0468C192.295 53.4533 191.506 53.8344 190.336 54.1901C189.191 54.5204 187.88 54.8125 186.405 55.0666C184.929 55.2952 183.491 55.5112 182.091 55.7144C180.692 55.8922 179.521 56.0447 178.58 56.1717C176.366 56.4512 174.343 56.9212 172.511 57.5817C170.704 58.2423 169.254 59.195 168.16 60.4398C167.091 61.6593 166.557 63.2853 166.557 65.3177C166.557 68.1377 167.6 70.2718 169.687 71.7199C171.773 73.1426 174.432 73.854 177.664 73.854Z" fill="black"/>
<path d="M263.248 37.4605L252.904 39.2897C252.472 37.9686 251.785 36.711 250.843 35.517C249.927 34.3229 248.68 33.3448 247.103 32.5826C245.525 31.8205 243.553 31.4394 241.187 31.4394C237.955 31.4394 235.258 32.1635 233.095 33.6116C230.932 35.0343 229.85 36.8762 229.85 39.1373C229.85 41.0935 230.576 42.6687 232.026 43.8627C233.476 45.0568 235.817 46.0349 239.049 46.7971L248.362 48.9311C253.757 50.176 257.777 52.0941 260.424 54.6855C263.07 57.2769 264.393 60.6431 264.393 64.7842C264.393 68.2902 263.375 71.415 261.34 74.1589C259.33 76.8772 256.518 79.0113 252.904 80.5611C249.317 82.1108 245.156 82.8857 240.423 82.8857C233.858 82.8857 228.502 81.4884 224.354 78.6938C220.206 75.8737 217.662 71.8724 216.72 66.6896L227.751 65.0128C228.438 67.8837 229.85 70.0559 231.988 71.5294C234.125 72.9775 236.912 73.7016 240.347 73.7016C244.087 73.7016 247.077 72.9267 249.317 71.3769C251.556 69.8018 252.675 67.8837 252.675 65.6226C252.675 63.7934 251.988 62.2563 250.614 61.0115C249.266 59.7666 247.192 58.8266 244.393 58.1915L234.469 56.0193C228.998 54.7744 224.952 52.7928 222.331 50.0744C219.736 47.356 218.438 43.9135 218.438 39.747C218.438 36.2919 219.405 33.2686 221.339 30.6772C223.273 28.0859 225.944 26.0661 229.354 24.618C232.764 23.1445 236.67 22.4077 241.072 22.4077C247.408 22.4077 252.396 23.7796 256.034 26.5234C259.673 29.2418 262.078 32.8875 263.248 37.4605Z" fill="black"/>
<path d="M304.308 23.1699V32.3159H272.285V23.1699H304.308ZM280.873 9.14601H292.285V64.5174C292.285 66.7277 292.616 68.3918 293.278 69.5096C293.939 70.6021 294.792 71.3515 295.835 71.758C296.904 72.1391 298.061 72.3297 299.308 72.3297C300.224 72.3297 301.026 72.2661 301.713 72.1391C302.4 72.0121 302.934 71.9105 303.316 71.8342L305.377 81.247C304.716 81.5011 303.774 81.7551 302.553 82.0092C301.331 82.2886 299.805 82.4411 297.972 82.4665C294.97 82.5173 292.171 81.9838 289.575 80.8659C286.98 79.7481 284.88 78.0205 283.277 75.6832C281.674 73.3459 280.873 70.4115 280.873 66.8802V9.14601Z" fill="black"/>
<path d="M341.571 82.8857C335.795 82.8857 330.82 81.6535 326.647 79.1892C322.499 76.6994 319.293 73.2061 317.028 68.7094C314.789 64.1872 313.669 58.8901 313.669 52.8182C313.669 46.8225 314.789 41.5381 317.028 36.9651C319.293 32.3921 322.448 28.8226 326.494 26.2567C330.566 23.6907 335.324 22.4077 340.769 22.4077C344.077 22.4077 347.284 22.9539 350.388 24.0464C353.492 25.1388 356.279 26.8537 358.747 29.191C361.215 31.5283 363.162 34.5643 364.587 38.2989C366.012 42.0081 366.724 46.5176 366.724 51.8274V55.8668H320.12V47.3306H355.541C355.541 44.3327 354.93 41.6778 353.709 39.3659C352.487 37.0286 350.77 35.1867 348.556 33.8402C346.367 32.4937 343.797 31.8205 340.846 31.8205C337.639 31.8205 334.84 32.608 332.449 34.1832C330.082 35.7329 328.25 37.7654 326.952 40.2805C325.68 42.7703 325.044 45.476 325.044 48.3976V55.0666C325.044 58.979 325.731 62.3072 327.105 65.051C328.504 67.7948 330.451 69.8907 332.945 71.3388C335.438 72.7615 338.352 73.4729 341.685 73.4729C343.848 73.4729 345.82 73.168 347.602 72.5583C349.383 71.9232 350.922 70.9832 352.22 69.7383C353.518 68.4934 354.51 66.9564 355.197 65.1272L365.999 67.0707C365.134 70.2464 363.582 73.0283 361.342 75.4164C359.129 77.7791 356.342 79.621 352.983 80.9421C349.65 82.2378 345.846 82.8857 341.571 82.8857Z" fill="black"/>
<path d="M390.799 46.9495V81.7043H379.387V23.1699H390.341V32.697H391.066C392.415 29.5975 394.527 27.1077 397.403 25.2277C400.303 23.3477 403.955 22.4077 408.357 22.4077C412.352 22.4077 415.851 23.2461 418.853 24.9229C421.856 26.5742 424.184 29.0386 425.838 32.3159C427.492 35.5932 428.319 39.6454 428.319 44.4724V81.7043H416.907V45.8444C416.907 41.6016 415.8 38.2862 413.586 35.8981C411.372 33.4845 408.332 32.2778 404.464 32.2778C401.817 32.2778 399.464 32.8494 397.403 33.9927C395.367 35.1359 393.751 36.8127 392.555 39.023C391.385 41.2078 390.799 43.85 390.799 46.9495Z" fill="black"/>
<path d="M443.625 81.7043V23.1699H454.656V32.4683H455.267C456.335 29.318 458.218 26.841 460.916 25.0372C463.638 23.208 466.717 22.2934 470.153 22.2934C470.865 22.2934 471.705 22.3188 472.672 22.3696C473.664 22.4204 474.44 22.4839 475 22.5601V33.4591C474.542 33.3321 473.728 33.1924 472.557 33.0399C471.387 32.8621 470.216 32.7732 469.046 32.7732C466.348 32.7732 463.944 33.3448 461.832 34.4881C459.745 35.6059 458.091 37.1683 456.87 39.1754C455.648 41.157 455.038 43.4181 455.038 45.9587V81.7043H443.625Z" fill="black"/>
</g>
<defs>
<clipPath id="clip0_5_7">
<rect width="475" height="83" fill="white"/>
</clipPath>
</defs>
</svg>
